<?xml version="1.0" encoding="UTF-8"?><svg id="color-logo" xmlns="http://www.w3.org/2000/svg" xmlns:xlink="http://www.w3.org/1999/xlink" viewBox="0 0 1920 800"><defs><style>.cls-1{fill:url(#linear-gradient-2);}.cls-2{fill:url(#linear-gradient-51);}.cls-3{fill:url(#linear-gradient-17);}.cls-4{fill:url(#linear-gradient-43);}.cls-5{fill:url(#linear-gradient-15);}.cls-6{fill:url(#linear-gradient-18);}.cls-7{fill:url(#linear-gradient-40);}.cls-8{fill:url(#linear-gradient-52);}.cls-9{fill:url(#linear-gradient-28);}.cls-10{fill:url(#linear-gradient-14);}.cls-11{fill:url(#linear-gradient-36);}.cls-12{fill:url(#linear-gradient-20);}.cls-13{fill:url(#linear-gradient-6);}.cls-14{fill:url(#linear-gradient-53);}.cls-15{fill:url(#linear-gradient-35);}.cls-16{fill:url(#linear-gradient-48);}.cls-17{fill:url(#linear-gradient-32);}.cls-18{fill:url(#linear-gradient-11);}.cls-19{fill:url(#linear-gradient-50);}.cls-20{fill:url(#linear-gradient-39);}.cls-21{fill:url(#linear-gradient-10);}.cls-22{fill:url(#radial-gradient);}.cls-23{fill:url(#linear-gradient-49);}.cls-24{fill:url(#linear-gradient-37);}.cls-25{fill:url(#linear-gradient-16);}.cls-26{fill:#069;}.cls-27{fill:url(#linear-gradient-31);}.cls-28{fill:url(#linear-gradient-41);}.cls-29{fill:url(#linear-gradient-21);}.cls-30{fill:url(#linear-gradient-25);}.cls-31{fill:url(#linear-gradient-5);}.cls-32{fill:url(#linear-gradient-45);}.cls-33{fill:url(#radial-gradient-2);}.cls-34{fill:url(#linear-gradient-34);}.cls-35{fill:url(#linear-gradient-7);}.cls-36{fill:url(#linear-gradient-24);}.cls-37{fill:url(#linear-gradient-9);}.cls-38{fill:url(#linear-gradient-22);}.cls-39{fill:url(#linear-gradient-42);}.cls-40{fill:url(#linear-gradient-3);}.cls-41{fill:url(#linear-gradient);}.cls-42{fill:url(#linear-gradient-27);}.cls-43{fill:url(#linear-gradient-33);}.cls-44{fill:url(#linear-gradient-38);}.cls-45{fill:url(#linear-gradient-29);}.cls-46{fill:url(#linear-gradient-30);}.cls-47{fill:url(#linear-gradient-23);}.cls-48{fill:url(#linear-gradient-19);}.cls-49{fill:url(#linear-gradient-4);}.cls-50{fill:url(#linear-gradient-8);}.cls-51{fill:url(#linear-gradient-44);}.cls-52{fill:url(#linear-gradient-47);}.cls-53{fill:url(#linear-gradient-46);}.cls-54{fill:url(#linear-gradient-12);}.cls-55{fill:url(#linear-gradient-13);}.cls-56{fill:url(#linear-gradient-26);}</style><radialGradient id="radial-gradient" cx="982.6" cy="371.78" fx="982.6" fy="885.11" r="630.92" gradientTransform="translate(0 334.6) scale(1 .1)" gradientUnits="userSpaceOnUse"><stop offset="0" stop-color="#09c"/><stop offset="0" stop-color="#0098cd"/><stop offset=".13" stop-color="#0499cd"/><stop offset=".26" stop-color="#109fd0"/><stop offset=".4" stop-color="#25a7d5"/><stop offset=".53" stop-color="#42b4db"/><stop offset=".67" stop-color="#67c3e3"/><stop offset=".8" stop-color="#95d7ed"/><stop offset=".94" stop-color="#cbedf9"/><stop offset="1" stop-color="#e6f9ff"/></radialGradient><linearGradient id="linear-gradient" x1="970.85" y1="383.55" x2="994.47" y2="383.55" gradientUnits="userSpaceOnUse"><stop offset="0" stop-color="#09c"/><stop offset=".21" stop-color="#e6f9ff"/><stop offset="1" stop-color="#09c"/></linearGradient><linearGradient id="linear-gradient-2" x1="941.55" y1="315.12" x2="1023.72" y2="315.12" gradientUnits="userSpaceOnUse"><stop offset="0" stop-color="#09c"/><stop offset=".03" stop-color="#049acc"/><stop offset=".05" stop-color="#109fcf"/><stop offset=".08" stop-color="#25a8d4"/><stop offset=".11" stop-color="#42b4da"/><stop offset=".14" stop-color="#67c4e3"/><stop offset=".17" stop-color="#95d7ed"/><stop offset=".2" stop-color="#cbedf9"/><stop offset=".21" stop-color="#e6f9ff"/><stop offset="1" stop-color="#09c"/></linearGradient><linearGradient id="linear-gradient-3" x1="908.48" y1="219.62" x2="1064.59" y2="233.28" gradientUnits="userSpaceOnUse"><stop offset="0" stop-color="#09c"/><stop offset=".03" stop-color="#20a6d3"/><stop offset=".07" stop-color="#65c3e2"/><stop offset=".12" stop-color="#9cdaee"/><stop offset=".15" stop-color="#c4ebf7"/><stop offset=".18" stop-color="#ddf5fd"/><stop offset=".2" stop-color="#e6f9ff"/><stop offset="1" stop-color="#09c"/></linearGradient><radialGradient id="radial-gradient-2" cx="982.62" cy="177.05" fx="982.62" fy="177.05" r="70.78" gradientTransform="translate(0 123.94) scale(1 .3)" gradientUnits="userSpaceOnUse"><stop offset="0" stop-color="#069"/><stop offset=".14" stop-color="#07a"/><stop offset=".36" stop-color="#0090c3"/><stop offset=".5" stop-color="#09c"/><stop offset=".62" stop-color="#029acc"/><stop offset=".69" stop-color="#0a9dce"/><stop offset=".75" stop-color="#19a3d1"/><stop offset=".8" stop-color="#2dacd6"/><stop offset=".84" stop-color="#47b6db"/><stop offset=".89" stop-color="#68c4e3"/><stop offset=".93" stop-color="#8ed4eb"/><stop offset=".97" stop-color="#b9e6f5"/><stop offset="1" stop-color="#e6f9ff"/></radialGradient><linearGradient id="linear-gradient-4" x1="963.7" y1="141.6" x2="1002.23" y2="208.34" gradientUnits="userSpaceOnUse"><stop offset="0" stop-color="#09c"/><stop offset=".4" stop-color="#e6f9ff"/><stop offset=".47" stop-color="#e1f6fd"/><stop offset=".55" stop-color="#d3f1fa"/><stop offset=".63" stop-color="#bbe7f5"/><stop offset=".72" stop-color="#9bd9ee"/><stop offset=".81" stop-color="#71c8e5"/><stop offset=".9" stop-color="#3eb2d9"/><stop offset="1" stop-color="#029acc"/><stop offset="1" stop-color="#09c"/></linearGradient><linearGradient id="linear-gradient-5" x1="886.06" y1="477.92" x2="919.82" y2="477.92" gradientUnits="userSpaceOnUse"><stop offset="0" stop-color="#09c"/><stop offset="1" stop-color="#e1f3fc"/></linearGradient><linearGradient id="linear-gradient-6" x1="911.84" y1="441.62" x2="970.54" y2="441.62" xlink:href="#linear-gradient-5"/><linearGradient id="linear-gradient-7" x1="866.13" y1="547.88" x2="887.95" y2="547.88" xlink:href="#linear-gradient-5"/><linearGradient id="linear-gradient-8" x1="946.77" y1="633.71" x2="964.74" y2="633.71" xlink:href="#linear-gradient-5"/><linearGradient id="linear-gradient-9" x1="954.04" y1="444.86" x2="978.61" y2="444.86" xlink:href="#linear-gradient-5"/><linearGradient id="linear-gradient-10" x1="962.18" y1="456.01" x2="987.27" y2="456.01" xlink:href="#linear-gradient-5"/><linearGradient id="linear-gradient-11" x1="1016.02" y1="613.61" x2="1040.14" y2="613.61" xlink:href="#linear-gradient-5"/><linearGradient id="linear-gradient-12" x1="989.27" y1="444.93" x2="1046.17" y2="444.93" xlink:href="#linear-gradient-5"/><linearGradient id="linear-gradient-13" x1="1020.55" y1="464.94" x2="1046.17" y2="464.94" xlink:href="#linear-gradient-5"/><linearGradient id="linear-gradient-14" x1="1020.55" y1="481.84" x2="1048.35" y2="481.84" xlink:href="#linear-gradient-5"/><linearGradient id="linear-gradient-15" x1="1032.41" y1="484.27" x2="1070.02" y2="484.27" xlink:href="#linear-gradient-5"/><linearGradient id="linear-gradient-16" x1="1054.23" y1="501.43" x2="1085.62" y2="501.43" xlink:href="#linear-gradient-5"/><linearGradient id="linear-gradient-17" x1="1047.49" y1="544.41" x2="1063.99" y2="544.41" xlink:href="#linear-gradient-5"/><linearGradient id="linear-gradient-18" x1="1047.49" y1="552.64" x2="1084.34" y2="552.64" xlink:href="#linear-gradient-5"/><linearGradient id="linear-gradient-19" x1="1049.94" y1="577.91" x2="1084.34" y2="577.91" xlink:href="#linear-gradient-5"/><linearGradient id="linear-gradient-20" x1="919.37" y1="547.27" x2="1011.35" y2="547.27" xlink:href="#linear-gradient-5"/><linearGradient id="linear-gradient-21" x1="180.24" y1="455.43" x2="256.82" y2="455.43" xlink:href="#linear-gradient-5"/><linearGradient id="linear-gradient-22" x1="297.95" y1="455.43" x2="374.43" y2="455.43" xlink:href="#linear-gradient-5"/><linearGradient id="linear-gradient-23" x1="219.28" y1="563.14" x2="236.51" y2="563.14" xlink:href="#linear-gradient-5"/><linearGradient id="linear-gradient-24" x1="241.23" y1="503.15" x2="280.28" y2="503.15" xlink:href="#linear-gradient-5"/><linearGradient id="linear-gradient-25" x1="286.84" y1="563.14" x2="320.65" y2="563.14" xlink:href="#linear-gradient-5"/><linearGradient id="linear-gradient-26" x1="358.98" y1="535.22" x2="375.7" y2="535.22" xlink:href="#linear-gradient-5"/><linearGradient id="linear-gradient-27" x1="406.71" y1="455.41" x2="462.37" y2="455.41" xlink:href="#linear-gradient-5"/><linearGradient id="linear-gradient-28" x1="446.98" y1="535.24" x2="463.63" y2="535.24" xlink:href="#linear-gradient-5"/><linearGradient id="linear-gradient-29" x1="517.36" y1="482.17" x2="661.84" y2="482.17" xlink:href="#linear-gradient-5"/><linearGradient id="linear-gradient-30" x1="606.05" y1="559.21" x2="662.22" y2="559.21" xlink:href="#linear-gradient-5"/><linearGradient id="linear-gradient-31" x1="525.72" y1="547.27" x2="602.83" y2="547.27" xlink:href="#linear-gradient-5"/><linearGradient id="linear-gradient-32" x1="635.55" y1="573.98" x2="662.22" y2="573.98" xlink:href="#linear-gradient-5"/><linearGradient id="linear-gradient-33" x1="684.52" y1="487.39" x2="842.01" y2="487.39" xlink:href="#linear-gradient-5"/><linearGradient id="linear-gradient-34" x1="725.62" y1="594.1" x2="741.17" y2="594.1" xlink:href="#linear-gradient-5"/><linearGradient id="linear-gradient-35" x1="798.89" y1="578.74" x2="841.52" y2="578.74" xlink:href="#linear-gradient-5"/><linearGradient id="linear-gradient-36" x1="725.07" y1="514.97" x2="740.49" y2="514.97" xlink:href="#linear-gradient-5"/><linearGradient id="linear-gradient-37" x1="725.38" y1="528.58" x2="785.18" y2="528.58" xlink:href="#linear-gradient-5"/><linearGradient id="linear-gradient-38" x1="1110.62" y1="455.39" x2="1173.32" y2="455.39" xlink:href="#linear-gradient-5"/><linearGradient id="linear-gradient-39" x1="1220.13" y1="455.39" x2="1273.49" y2="455.39" xlink:href="#linear-gradient-5"/><linearGradient id="linear-gradient-40" x1="1151.17" y1="571.36" x2="1167.78" y2="571.36" xlink:href="#linear-gradient-5"/><linearGradient id="linear-gradient-41" x1="1158.62" y1="508.08" x2="1222.25" y2="508.08" xlink:href="#linear-gradient-5"/><linearGradient id="linear-gradient-42" x1="1258.86" y1="535.24" x2="1274.66" y2="535.24" xlink:href="#linear-gradient-5"/><linearGradient id="linear-gradient-43" x1="1306.62" y1="455.39" x2="1361.5" y2="455.39" xlink:href="#linear-gradient-5"/><linearGradient id="linear-gradient-44" x1="1346.97" y1="535.24" x2="1362.69" y2="535.24" xlink:href="#linear-gradient-5"/><linearGradient id="linear-gradient-45" x1="1416.38" y1="482.17" x2="1560.86" y2="482.17" xlink:href="#linear-gradient-5"/><linearGradient id="linear-gradient-46" x1="1505.06" y1="559.21" x2="1561.24" y2="559.21" xlink:href="#linear-gradient-5"/><linearGradient id="linear-gradient-47" x1="1424.73" y1="547.27" x2="1501.85" y2="547.27" xlink:href="#linear-gradient-5"/><linearGradient id="linear-gradient-48" x1="1534.57" y1="573.98" x2="1561.24" y2="573.98" xlink:href="#linear-gradient-5"/><linearGradient id="linear-gradient-49" x1="1614.02" y1="455.37" x2="1685.71" y2="455.37" xlink:href="#linear-gradient-5"/><linearGradient id="linear-gradient-50" x1="1604.34" y1="607.21" x2="1623.45" y2="607.21" xlink:href="#linear-gradient-5"/><linearGradient id="linear-gradient-51" x1="1671.49" y1="535.24" x2="1739.76" y2="535.24" xlink:href="#linear-gradient-5"/><linearGradient id="linear-gradient-52" x1="1622.84" y1="530.08" x2="1647.97" y2="530.08" xlink:href="#linear-gradient-5"/><linearGradient id="linear-gradient-53" x1="1622.84" y1="554.37" x2="1664.31" y2="554.37" xlink:href="#linear-gradient-5"/></defs><g id="micronica"><g id="LogoMark"><path class="cls-22" d="m982.67,433.29c208.65-16.89,417.3-33.77,625.95-50.66-31.57-7.24-63.14-14.47-94.71-21.71-177.07,24.11-354.13,48.22-531.2,72.33,117.45-33.88,234.89-67.77,352.33-101.65-22.8-2.41-45.6-4.82-68.4-7.24-94.64,36.28-189.28,72.55-283.92,108.83,54.34-39.77,108.68-79.55,163.02-119.32-12.28-1.2-24.55-2.41-36.83-3.62-42.1,40.99-84.21,81.97-126.31,122.96-42.1-40.99-84.21-81.98-126.31-122.96-12.28,1.2-24.55,2.41-36.83,3.62,54.34,39.77,108.68,79.55,163.02,119.32-94.64-36.28-189.28-72.55-283.92-108.83-22.8,2.41-45.6,4.82-68.4,7.24,117.45,33.88,234.89,67.76,352.33,101.65-177.07-24.11-354.13-48.22-531.2-72.33-31.57,7.24-63.14,14.47-94.71,21.71,208.65,16.89,417.3,33.77,625.95,50.66,0,0,0,0-.01.01.03,0,.05,0,.08,0,.03,0,.05,0,.08,0,0,0,0,0-.01-.01Z"/><path class="cls-41" d="m994.47,335.38c-3.78-.01-7.55-.03-11.33-.04h0c-.16,0-.32,0-.48,0s-.32,0-.48,0h0c-3.78.02-7.55.03-11.33.04v79.68c3.94,5.57,7.87,11.13,11.81,16.7,3.94-5.57,7.87-11.13,11.81-16.7v-79.68Z"/><path class="cls-26" d="m970.83,333.36c.03,1.86.05,3.75.05,5.67,0,1.92-.01,3.82-.04,5.7.05-.04.14-.11.24-.18,0,0,.17-.12.34-.21.65-.33,1.3-.27,1.49-.25,6.19.48,12.42.18,18.59.83.33.04,1.15.13,2.01.63.43.25.74.53.94.74-.02-2.15-.02-4.31-.02-6.5,0-2.19.02-4.37.05-6.52-7.89.04-15.78.07-23.66.11Z"/><path class="cls-1" d="m1023.7,294.31c-13.69,0-27.38,0-41.07,0-13.69,0-27.38,0-41.07,0,0,8.42,0,16.85-.02,25.27,0,.12,0,.3.02.52.37,4.97,6.02,8.31,8.68,9.84,6.81,3.91,13.39,4.67,20.56,5.42,4.83.5,8.87.58,11.83.55,2.95.03,7-.04,11.83-.55,7.17-.75,13.76-1.51,20.56-5.42,2.66-1.53,8.31-4.88,8.68-9.84.02-.22.02-.4.02-.52,0-8.42,0-16.85-.02-25.27Z"/><path class="cls-26" d="m941.59,292.85c-.02,5.26-.03,10.52-.05,15.78.34-.32,1-.88,1.94-1.36,2.28-1.16,4.53-.93,5.18-.88,21.56,1.65,43.3.63,64.81,2.88,1.15.12,4.01.41,7.01,2.2,1.47.88,2.54,1.87,3.23,2.6-.02-7.15-.03-14.31-.05-21.46-27.36.08-54.71.16-82.07.25Z"/><path class="cls-40" d="m1061.21,270.15c-2.73-31.02-5.47-62.05-8.2-93.07-.27-.84-.73-2.04-1.46-3.39-4.76-8.78-14.9-11.95-22.08-13.78-20.88-5.31-41.15-5.45-46.82-5.45s-25.95.13-46.84,5.45c-7.18,1.83-17.33,5-22.08,13.78-.73,1.35-1.19,2.56-1.46,3.39-2.73,31.02-5.47,62.05-8.2,93.07-.06.77-.07,1.9.19,3.22,1.27,6.46,8.08,11.56,19.84,15.87,20.97,7.67,45.29,8.24,58.56,8.24s37.57-.58,58.53-8.24c11.76-4.3,18.58-9.41,19.84-15.87.26-1.32.25-2.45.19-3.22Z"/><ellipse class="cls-33" cx="982.62" cy="177.05" rx="70.39" ry="22.86"/><ellipse class="cls-49" cx="982.97" cy="174.97" rx="68.38" ry="20.51"/></g><g id="LogoType"><path class="cls-31" d="m919.82,478.69c-.79.75-1.55,1.47-2.3,2.26-.07.08-.15.15-.22.19l-.04.04c-3.62,2.9-6.97,6.14-10.02,9.65l-13.19-6.1-7.99-3.73,17.03-15.98,14.09,6.56,2.64,7.12Z"/><polygon class="cls-13" points="970.54 426.05 954.04 441.77 931.84 449.87 911.84 457.18 928.68 441.35 970.54 426.05"/><path class="cls-26" d="m1048.13,538.61l15.86-5.8,5.95-2.19-3.47-9.34-12.25-32.97-21.82,7.99c-3.5-4.71-7.46-9.01-11.87-12.85l9.68-21.14-33.54-15.56-7.42-3.43-2,4.37-7.69,16.73c-5.76-.87-11.61-1.13-17.41-.75l-8.14-21.89-22.19,8.1-20.01,7.31,5.35,14.39,2.64,7.12.04.11.04.04.08.23c-.75.53-1.43,1.05-2.15,1.66l-.04.04s-.04.04-.04.04c-.08.08-.15.11-.23.15-.07.08-.15.15-.22.19l-.04.04c-3.62,2.9-6.97,6.14-10.02,9.65l-13.19-6.1-7.99-3.73-18.69,40.81,21.18,9.83c-.19,1.36-.38,2.71-.49,4.11-.11.94-.19,1.92-.23,2.9v.23c-.08,1.36-.11,2.75-.11,4.11,0,2,.08,4.03.23,6.03l-1.32.49-20.5,7.5,15.71,42.28,21.82-7.95c3.47,4.67,7.46,9,11.83,12.81l-9.65,21.1,40.92,19.03,9.38-20.54.26-.56c1.02.15,2.03.3,3.05.38.75.11,1.54.19,2.3.23.91.08,1.85.15,2.75.19h.23c3.01.19,6.07.15,9.08-.04l8.14,21.89,42.16-15.37-3.69-9.95-4.41-11.94c4.26-3.43,8.25-7.16,12.1-11.04.08-.07.11-.11.19-.19.15-.19.3-.38.45-.53h.04l3.2,1.51,3.05,1.39v.04h.04l14.85,6.9,9.19-19.97v-.04l9.53-20.76-21.18-9.83c.83-5.77,1.06-11.61.64-17.41Zm-31.58,8.14c-.3,7.8-2.19,14.54-5.2,20.27-.11.19-.23.38-.3.53-4.71,8.63-12.06,14.81-20.57,18.61-.11.04-.23.08-.34.15-19.22,9.53-44.46,7.12-59.91-12.21-.11-.15-.26-.3-.38-.45-.3-.42-.64-.83-.94-1.24-.3-.38-.57-.79-.83-1.17-5.31-7.2-8.52-16.32-8.7-27.47,0-19.97,9.65-33.54,22.87-40.73,0-.04.04-.04.07-.08.04,0,.08,0,.11-.04.08-.04.11-.08.19-.11h.04l.04-.04c19.52-10.4,46.61-7.12,61.95,9.57,6.14,6.63,10.4,15.34,11.61,26.19.08.53.15,1.06.19,1.58.08.75.11,1.51.15,2.26.04,1.47.04,2.94-.04,4.37Z"/><path class="cls-35" d="m887.95,549.01l-1.32.49-20.5,7.5,17.14-16.58,4.56-1.66v.11c-.08,1.36-.11,2.75-.11,4.11,0,2,.08,4.03.23,6.03Z"/><path class="cls-50" d="m964.74,623.95l-1.43,3.09-16.54,17.22,9.38-20.54.26-.56c1.02.15,2.03.3,3.05.38.75.11,1.54.19,2.3.23.91.08,1.85.15,2.75.19h.23Z"/><polygon class="cls-37" points="978.61 447.76 962.18 463.66 954.04 441.77 970.54 426.05 978.61 447.76"/><path class="cls-21" d="m987.27,447.68l-7.69,16.73c-5.76-.87-11.61-1.13-17.41-.75l16.43-15.9c1.69-.11,3.39-.15,5.09-.15,1.17,0,2.41.04,3.58.08Z"/><path class="cls-18" d="m1040.14,613.33l-16.01,17.11-3.69-9.95-4.41-11.94c4.37-3.24,8.44-6.93,12.1-11.04.08-.07.11-.11.19-.19.15-.15.34-.34.49-.53l3.2,1.51,3.05,1.43,5.09,13.6Z"/><polygon class="cls-54" points="1046.17 446.44 1030.23 462.3 996.69 446.74 989.27 443.31 1005.51 427.56 1046.17 446.44"/><polygon class="cls-55" points="1046.17 446.44 1036.56 467.39 1020.55 483.44 1030.23 462.3 1046.17 446.44"/><path class="cls-10" d="m1048.35,480.16l-15.94,16.13c-3.5-4.71-7.46-9.01-11.87-12.85l16.01-16.05c4.37,3.84,8.33,8.1,11.79,12.77Z"/><polygon class="cls-5" points="1070.02 472.25 1054.23 488.3 1032.41 496.29 1048.35 480.16 1070.02 472.25"/><polygon class="cls-25" points="1085.62 514.27 1069.94 530.62 1066.48 521.27 1054.23 488.3 1070.02 472.25 1085.62 514.27"/><path class="cls-3" d="m1063.99,532.8c-.04,1.13-.15,2.22-.26,3.32-.11,1.13-.23,2.22-.41,3.32l-15.83,16.58c.83-5.77,1.06-11.61.64-17.41l15.86-5.8Z"/><polygon class="cls-6" points="1084.34 549.2 1068.66 565.85 1047.49 556.02 1063.31 539.44 1084.34 549.2"/><polygon class="cls-48" points="1084.34 549.2 1065.72 589.7 1049.94 606.62 1059.13 586.65 1059.13 586.61 1068.66 565.85 1084.34 549.2"/><path class="cls-12" d="m1011.35,567.02c-.11.19-.23.38-.3.53-4.71,8.63-12.06,14.81-20.57,18.61-.11.04-.23.08-.34.15-19.22,9.53-44.46,7.12-59.91-12.21-.11-.15-.26-.3-.38-.45-.3-.42-.64-.83-.94-1.24-.3-.38-.57-.79-.83-1.17-5.31-7.2-8.52-16.32-8.7-27.47,0-19.97,9.65-33.54,22.87-40.73t-.04.08c.08-.08.15-.11.23-.19.08-.04.11-.08.19-.11h.04c-11.87,20.27-5.95,45.41,10.06,60.18,15.94,12.77,40.13,14.32,57.73,4.52.3-.15.6-.3.91-.49Z"/><polygon class="cls-29" points="256.82 447.97 241.23 462.88 180.24 462.88 195.9 447.97 256.82 447.97"/><polygon class="cls-38" points="374.43 447.97 358.98 462.88 297.95 462.88 313.51 447.97 374.43 447.97"/><path class="cls-26" d="m360.24,622.47h-39.18c-.2-27.49-.34-54.98-.41-82.5-.03-12.03-.07-24.1-.07-36.17h-1.57l-28.1,103.66-4.07,15.01h-31.25l-19.66-68.07-14.6-50.6h-2.05c.65,34.57,1.16,69.1,1.47,103.66.07,4.99.14,10.02.17,15.01h-39.38l-1.3-159.59h60.99l28.44,95.45h1.81l.65-2.39,8.14-29.27,17.68-63.8h61.03l1.16,144.58.1,15.01Z"/><path class="cls-47" d="m236.51,607.46l-15.59,15.01c-.03-4.99-.1-10.02-.17-15.01-.31-34.57-.82-69.1-1.47-103.66h2.05l14.6,50.6c.24,17.68.44,35.35.58,53.06Z"/><path class="cls-36" d="m280.28,526.67c-2.93,10.55-5.86,21.11-8.79,31.66h-1.81l-28.44-95.45,15.59-14.91,23.45,78.7Z"/><path class="cls-30" d="m320.65,539.97l-18.26,67.49-15.56,15.01,4.07-15.01,28.1-103.66h1.57c0,12.07.03,24.14.07,36.17Z"/><polygon class="cls-56" points="375.7 607.46 360.24 622.47 360.14 607.46 358.98 462.88 374.43 447.97 375.7 607.46"/><polygon class="cls-42" points="462.37 447.97 446.98 462.84 406.71 462.84 422.12 447.97 462.37 447.97"/><path class="cls-26" d="m448.25,622.51c-13.44,0-26.87-.04-40.31-.04l-1.23-159.63h40.27l1.16,144.62.1,15.04Z"/><polygon class="cls-9" points="463.63 607.46 448.25 622.51 448.14 607.46 446.98 462.84 462.37 447.97 463.63 607.46"/><path class="cls-45" d="m661.84,503.59l-15.18,14.94c-.34-2.74-.82-5.37-1.47-7.93-.44-1.98-1.02-3.9-1.71-5.74-.07-.21-.14-.41-.24-.62-.04-.24-.1-.44-.21-.65-11.86-31.25-47.39-45.44-81.37-42.84-.82.07-1.61.14-2.39.2-13.26,1.33-26.19,5.2-37.3,11.66-1.57.89-3.11,1.85-4.62,2.87.45-.41.85-.82,1.27-1.26,1.57-1.57,3.18-3.18,4.82-4.79,3.04-2.56,6.29-4.89,9.74-7.01,13.23-9.98,29.78-16.17,48.51-16.58,6.46-.14,13.03.34,19.45,1.47,28.58,4.96,54.74,22.32,60.17,52.62.17,1.2.38,2.43.51,3.66Z"/><polygon class="cls-46" points="662.22 551.73 647.04 566.7 606.05 566.7 621.3 551.73 662.22 551.73"/><path class="cls-26" d="m647.04,566.7c-.24,2.46-.58,4.85-1.06,7.14-1.78,8.14-5.13,15.32-9.71,21.47-.21.31-.44.62-.72.92-12.03,15.69-32,24.86-52.55,27.62-2.15.27-4.31.51-6.46.65-.31,0-.61.03-.96.03-2.84.17-5.64.21-8.48.14-1.3,0-2.6-.07-3.86-.17-23.18-1.88-39.86-11.01-39.86-11.01-22.53-12.92-31.32-37.37-33.3-43.32-2.77-7.14-7.01-21.03-5.16-38.53.1-.92,3.04-21.81,14.53-38.6,4.51-6.6,10.26-12.2,16.79-16.79.38-.27.75-.55,1.13-.79,1.51-1.02,3.04-1.98,4.62-2.87,11.11-6.46,24.04-10.33,37.3-11.66.79-.07,1.57-.14,2.39-.2,33.78-2.22,69.4,11.83,81.3,42.84.1.21.17.41.27.65.1.21.17.41.24.62.65,1.85,1.23,3.76,1.71,5.74.65,2.56,1.13,5.2,1.47,7.93h-40.99c-5.67-20.27-22.09-26.91-38.36-24.41-6.39.96-12.75,3.32-18.46,6.84-1.23.75-2.39,1.54-3.55,2.39,0,0,0,.03-.04.03-1.27.92-2.36,1.81-3.32,2.7-.75.68-1.57,1.44-2.36,2.22-.48.48-.89.89-1.23,1.27-.21.24-.41.44-.58.68-2.87,3.42-9.71,13.54-11.62,27.25-.04.31-.07.58-.1.89-.48,3.73-.55,7.73-.07,11.9.2,1.78.44,3.38.75,4.79.24,1.13.55,2.5,1.06,4.03.85,2.94,2.22,6.5,4.38,10.39.07.1.14.21.21.34.34.58.68,1.2,1.09,1.81.38.65.79,1.3,1.27,1.95.41.65.89,1.33,1.4,1.98,6.87,9.2,18.77,14.56,30.87,15.45,13.85,1.09,27.97-3.62,35.11-15.01.31-.38.51-.75.72-1.13,1.06-1.85,1.91-3.83,2.6-5.98.24-.72.44-1.47.62-2.22h40.99Z"/><path class="cls-27" d="m602.83,574.9c-.2.38-.41.75-.72,1.13-7.14,11.39-21.26,16.1-35.11,15.01-12.1-.89-24-6.26-30.87-15.45-3.97-5.31-6.33-10.46-7.77-14.67,0,0-.99-2.9-1.62-5.82-2.19-10.18-1.93-30.6,11.61-45.52,1.46-1.61,3.73-3.88,6.94-6.22-12.51,24.21-.51,48.48,17.54,62.09.03.04.07.04.1.1,12.48,9.4,27.83,13.71,39.9,9.37Z"/><path class="cls-17" d="m662.22,551.73c-.07.75-.14,1.5-.24,2.26-.17,1.16-.34,2.29-.55,3.42-.38,2.05-.82,4.07-1.4,5.98,0,.07,0,.14-.04.17-3.97,13.91-12.55,24.65-23.69,32.21-.24.17-.48.34-.75.48.27-.31.51-.62.72-.92,4.58-6.15,7.93-13.33,9.71-21.47.48-2.29.82-4.68,1.06-7.14l15.18-14.97Z"/><path class="cls-43" d="m842,494.57c0,.58,0,1.16-.03,1.74l-.07,1.71c0,.17,0,.38-.04.55-.03.62-.1,1.27-.17,1.88-.27,2.02-.65,3.97-1.2,5.88-1.57,5.57-4.31,10.67-8,14.94l-1.03,1.13c-.38.38-.72.75-1.09,1.1-.38.38-.75.72-1.13,1.06-.41.34-.79.65-1.2.99-.38.31-.75.61-1.13.89-.44.34-.92.65-1.4.96-.38.27-.79.55-1.2.78-.65.41-1.37.82-2.05,1.16,2.94-5.44,4.58-11.66,4.68-18.12,2.46-59.97-81.71-51.62-127.18-48.96-5.81.34-10.97.58-15.25.58l15.15-14.87c3.42,0,7.42-.17,11.86-.41,5.09-.27,10.8-.68,16.89-1.03,41.47-2.43,100.48-4.17,111.73,33.44.92,3.01,1.5,6.29,1.71,9.81.14,1.54.17,3.15.14,4.79Z"/><path class="cls-26" d="m820.25,564.8c-.27-.75-.62-1.54-1.03-2.26-.34-.72-.75-1.44-1.16-2.09t-.03-.04c-1.68-2.67-3.83-4.99-6.6-6.87-.14-.1-.27-.21-.44-.27-1.3-.85-2.77-1.61-4.38-2.26-.17-.1-.38-.17-.55-.21-.34-.14-.68-.27-1.03-.38-1.88-.65-3.9-1.16-6.15-1.5v-1.54c.72-.17,1.44-.34,2.15-.58,7.14-2.09,13.09-6.29,17.47-11.83h.04c1.37-1.74,2.63-3.62,3.73-5.61h-.07s.04,0,.07-.03c2.94-5.44,4.58-11.66,4.68-18.12,2.46-59.97-81.71-51.62-127.18-48.96-5.81.34-10.97.58-15.25.58l1.23,159.66h40.31l-.14-15.04-.31-40.82c3.93,0,9.3-.55,15.21-.96,14.19-.96,31.45-1.2,39.28,8.55.24.31.48.62.68.92.44.65.85,1.3,1.2,1.98.72,1.37,1.27,2.84,1.64,4.38.31,1.16.55,2.39.72,3.62,1.64,11.73-1.88,26.7,1.61,37.37h40.51c-1.47-4.48-2.09-9.61-2.39-15.04-.68-14.33,1.03-30.74-3.83-42.67Zm-34.87-45.95c-.03.41-.1.82-.17,1.2v.07c-.04.17-.07.34-.1.51-.07.38-.17.75-.27,1.1-.62,2.26-1.57,4.21-2.84,5.88-.51.65-1.06,1.3-1.68,1.88-12.07,11.76-41.74,6.29-54.94,6.29l-.31-40.72c3.76,0,9.16-.51,15.21-.89,10.56-.65,23.11-.96,32.31,2.39,1.06.38,2.09.85,3.04,1.33.96.48,1.88,1.03,2.74,1.64.31.24.65.48.99.75.31.27.61.55.92.82.31.27.58.58.85.85.27.31.55.62.82.92,2.36,3.01,3.73,6.94,3.62,12.1.03,1.37-.03,2.63-.21,3.86Z"/><path class="cls-34" d="m741.17,607.46l-15.11,15.04-.14-15.04-.31-40.82c3.93,0,9.3-.55,15.21-.96l.34,41.78Z"/><path class="cls-15" d="m841.52,607.46l-15.04,15.04c-1.37-4.48-1.91-9.61-2.19-15.04-.65-14.33.89-30.74-4.03-42.67-.27-.75-.62-1.54-1.03-2.26-.34-.72-.75-1.44-1.16-2.09t-.03-.04c-1.68-2.67-3.83-4.99-6.6-6.87-.14-.1-.27-.21-.44-.27-1.33-.89-2.77-1.64-4.38-2.26-.17-.1-.38-.17-.55-.21-.34-.14-.68-.27-1.03-.38-1.88-.65-3.9-1.16-6.15-1.5v-1.54c2.47-.56,5.72-1.58,9.21-3.52,5.16-2.87,8.51-6.47,10.42-8.89h.04c2.02.55,3.86,1.3,5.5,2.12.79.44,1.54.89,2.22,1.33,1.1.72,2.05,1.51,2.97,2.36.89.82,1.71,1.71,2.46,2.67,0,.04.03.04.03.04.48.65.92,1.3,1.33,1.95l.03.03c.41.68.82,1.37,1.16,2.09.38.72.72,1.5,1.02,2.26.41,1.03.79,2.09,1.13,3.18,4.85,16.34.14,39.32,5.09,54.46Z"/><path class="cls-11" d="m740.49,520.83l-15.11,14.94-.31-40.72c3.76,0,9.16-.51,15.21-.89l.21,26.67Z"/><path class="cls-24" d="m785.18,520.11c-.03.17-.03.34-.07.51-.07.38-.17.75-.27,1.1-.62,2.26-1.57,4.21-2.84,5.88-.51.65-1.06,1.3-1.68,1.88-12.07,11.76-41.74,6.29-54.94,6.29l15.11-14.94c.82,0,1.71.04,2.63.07.85.04,1.74.07,2.67.14,1.2.07,2.46.14,3.8.24.75.07,1.54.1,2.32.17.41.03.79.07,1.2.07,10.19.75,22.53,1.4,32.07-1.4Z"/><polygon class="cls-44" points="1173.32 447.94 1158.62 462.84 1110.62 462.84 1125.39 447.94 1173.32 447.94"/><polygon class="cls-20" points="1273.49 447.94 1258.86 462.84 1220.13 462.84 1234.76 447.94 1273.49 447.94"/><path class="cls-26" d="m1260.06,622.54c-15.11,0-30.19,0-45.27-.03l-47.93-79.25-13.91-23.04h-1.78c.96,29.13,1.47,58.19,1.74,87.28.07,4.99.1,10.02.14,15.01h-41.23l-1.2-159.66h48l62.05,105.37h1.57c-.04-.51-.04-1.06-.04-1.57-.44-12.51-.79-25.03-1.06-37.54-.55-22.09-.89-44.14-1.02-66.26h38.74l1.09,144.65.1,15.04Z"/><path class="cls-7" d="m1167.78,607.5l-14.74,15.01c-.03-4.99-.07-10.02-.14-15.01-.27-29.09-.79-58.15-1.74-87.28h1.78l13.91,23.04c.48,21.4.75,42.8.92,64.24Z"/><path class="cls-28" d="m1222.25,568.22h-1.57l-62.05-105.37,14.7-14.91,47.83,81.17c.14,6.23.29,12.48.47,18.77.19,6.82.4,13.6.63,20.34Z"/><polygon class="cls-39" points="1274.66 607.5 1260.06 622.54 1259.96 607.5 1258.86 462.84 1273.49 447.94 1274.66 607.5"/><polygon class="cls-4" points="1361.5 447.94 1346.97 462.81 1321.29 462.84 1306.62 462.84 1321.19 447.94 1361.5 447.94"/><polygon class="cls-26" points="1348.16 622.54 1307.82 622.54 1306.62 462.84 1321.29 462.84 1346.97 462.81 1348.06 607.5 1348.16 622.54"/><polygon class="cls-51" points="1362.69 607.5 1348.16 622.54 1348.06 607.5 1346.97 462.81 1361.5 447.94 1362.69 607.5"/><path class="cls-32" d="m1560.86,503.59l-15.18,14.94c-.34-2.74-.82-5.37-1.47-7.93-.44-1.98-1.02-3.9-1.71-5.74-.07-.21-.14-.41-.24-.62-.04-.24-.1-.44-.21-.65-11.86-31.25-47.39-45.44-81.37-42.84-.82.07-1.61.14-2.39.2-13.26,1.33-26.19,5.2-37.3,11.66-1.57.89-3.11,1.85-4.62,2.87.45-.41.85-.82,1.27-1.26,1.57-1.57,3.18-3.18,4.82-4.79,3.04-2.56,6.29-4.89,9.74-7.01,13.23-9.98,29.78-16.17,48.51-16.58,6.46-.14,13.03.34,19.45,1.47,28.58,4.96,54.74,22.32,60.17,52.62.17,1.2.38,2.43.51,3.66Z"/><polygon class="cls-53" points="1561.24 551.73 1546.06 566.7 1505.06 566.7 1520.31 551.73 1561.24 551.73"/><path class="cls-26" d="m1546.06,566.7c-.24,2.46-.58,4.85-1.06,7.14-1.78,8.14-5.13,15.32-9.71,21.47-.21.31-.44.62-.72.92-12.03,15.69-32,24.86-52.55,27.62-2.15.27-4.31.51-6.46.65-.31,0-.61.03-.96.03-2.84.17-5.64.21-8.48.14-1.3,0-2.6-.07-3.86-.17-23.18-1.88-39.86-11.01-39.86-11.01-22.53-12.92-31.32-37.37-33.3-43.32-2.77-7.14-7.01-21.03-5.16-38.53.1-.92,3.04-21.81,14.53-38.6,4.51-6.6,10.26-12.2,16.79-16.79.38-.27.75-.55,1.13-.79,1.51-1.02,3.04-1.98,4.62-2.87,11.11-6.46,24.04-10.33,37.3-11.66.79-.07,1.57-.14,2.39-.2,33.78-2.22,69.4,11.83,81.3,42.84.1.21.17.41.27.65.1.21.17.41.24.62.65,1.85,1.23,3.76,1.71,5.74.65,2.56,1.13,5.2,1.47,7.93h-40.99c-5.67-20.27-22.09-26.91-38.36-24.41-6.39.96-12.75,3.32-18.46,6.84-1.23.75-2.39,1.54-3.55,2.39,0,0,0,.03-.04.03-1.27.92-2.36,1.81-3.32,2.7-.75.68-1.57,1.44-2.36,2.22-.48.48-.89.89-1.23,1.27-.21.24-.41.44-.58.68-2.87,3.42-9.71,13.54-11.62,27.25-.04.31-.07.58-.1.89-.48,3.73-.55,7.73-.07,11.9.2,1.78.44,3.38.75,4.79.24,1.13.55,2.5,1.06,4.03.85,2.94,2.22,6.5,4.38,10.39.07.1.14.21.21.34.34.58.68,1.2,1.09,1.81.38.65.79,1.3,1.27,1.95.41.65.89,1.33,1.4,1.98,6.87,9.2,18.77,14.56,30.87,15.45,13.85,1.09,27.97-3.62,35.11-15.01.31-.38.51-.75.72-1.13,1.06-1.85,1.91-3.83,2.6-5.98.24-.72.44-1.47.62-2.22h40.99Z"/><path class="cls-52" d="m1501.85,574.9c-.2.38-.41.75-.72,1.13-7.14,11.39-21.26,16.1-35.11,15.01-12.1-.89-24-6.26-30.87-15.45-3.97-5.31-6.33-10.46-7.77-14.67,0,0-.99-2.9-1.62-5.82-2.19-10.18-1.93-30.6,11.61-45.52,1.46-1.61,3.73-3.88,6.94-6.22-12.51,24.21-.51,48.48,17.54,62.09.03.04.07.04.1.1,12.48,9.4,27.83,13.71,39.9,9.37Z"/><path class="cls-16" d="m1561.24,551.73c-.07.75-.14,1.5-.24,2.26-.17,1.16-.34,2.29-.55,3.42-.38,2.05-.82,4.07-1.4,5.98,0,.07,0,.14-.04.17-3.97,13.91-12.55,24.65-23.69,32.21-.24.17-.48.34-.75.48.27-.31.51-.62.72-.92,4.58-6.15,7.93-13.33,9.71-21.47.48-2.29.82-4.68,1.06-7.14l15.18-14.97Z"/><polygon class="cls-23" points="1685.71 447.94 1671.49 462.81 1614.02 462.81 1628.27 447.94 1685.71 447.94"/><path class="cls-26" d="m1720.51,607.5l-49.03-144.69h-57.47l-51.8,159.73h42.12l4.65-15.04,4.82-15.62h59.73l10.15,30.67h41.92l-5.09-15.04Zm-97.68-45.64c6.67-21.16,13.23-42.29,19.59-63.56h1.37l4.17,13.68v.04l4.14,13.47,7.18,21.4,5.03,14.97h-41.47Z"/><polygon class="cls-19" points="1623.45 591.87 1618.63 607.5 1604.34 622.54 1608.99 607.5 1613.81 591.87 1623.45 591.87"/><polygon class="cls-2" points="1739.76 607.5 1725.61 622.54 1720.51 607.5 1671.49 462.81 1685.71 447.94 1739.76 607.5"/><path class="cls-8" d="m1647.97,511.97v.04c-3.56,11.62-7.22,23.25-10.87,34.87l-14.26,14.97c6.67-21.16,13.23-42.29,19.59-63.56h1.37l4.17,13.68Z"/><polygon class="cls-14" points="1664.31 561.85 1622.84 561.85 1637.09 546.88 1659.28 546.88 1664.31 561.85"/></g></g></svg>