<?xml version="1.0" encoding="UTF-8"?><svg id="color-logotype" xmlns="http://www.w3.org/2000/svg" xmlns:xlink="http://www.w3.org/1999/xlink" viewBox="0 0 1920 520"><defs><style>.cls-1{fill:url(#linear-gradient-2);}.cls-2{fill:url(#linear-gradient-17);}.cls-3{fill:url(#linear-gradient-43);}.cls-4{fill:url(#linear-gradient-15);}.cls-5{fill:url(#linear-gradient-18);}.cls-6{fill:url(#linear-gradient-40);}.cls-7{fill:url(#linear-gradient-28);}.cls-8{fill:url(#linear-gradient-14);}.cls-9{fill:url(#linear-gradient-36);}.cls-10{fill:url(#linear-gradient-20);}.cls-11{fill:url(#linear-gradient-6);}.cls-12{fill:url(#linear-gradient-35);}.cls-13{fill:url(#linear-gradient-48);}.cls-14{fill:url(#linear-gradient-32);}.cls-15{fill:url(#linear-gradient-11);}.cls-16{fill:url(#linear-gradient-39);}.cls-17{fill:url(#linear-gradient-10);}.cls-18{fill:url(#linear-gradient-49);}.cls-19{fill:url(#linear-gradient-37);}.cls-20{fill:url(#linear-gradient-16);}.cls-21{fill:#069;}.cls-22{fill:url(#linear-gradient-31);}.cls-23{fill:url(#linear-gradient-41);}.cls-24{fill:url(#linear-gradient-21);}.cls-25{fill:url(#linear-gradient-25);}.cls-26{fill:url(#linear-gradient-5);}.cls-27{fill:url(#linear-gradient-45);}.cls-28{fill:url(#linear-gradient-34);}.cls-29{fill:url(#linear-gradient-7);}.cls-30{fill:url(#linear-gradient-24);}.cls-31{fill:url(#linear-gradient-9);}.cls-32{fill:url(#linear-gradient-22);}.cls-33{fill:url(#linear-gradient-42);}.cls-34{fill:url(#linear-gradient-3);}.cls-35{fill:url(#linear-gradient);}.cls-36{fill:url(#linear-gradient-27);}.cls-37{fill:url(#linear-gradient-33);}.cls-38{fill:url(#linear-gradient-38);}.cls-39{fill:url(#linear-gradient-29);}.cls-40{fill:url(#linear-gradient-30);}.cls-41{fill:url(#linear-gradient-23);}.cls-42{fill:url(#linear-gradient-19);}.cls-43{fill:url(#linear-gradient-4);}.cls-44{fill:url(#linear-gradient-8);}.cls-45{fill:url(#linear-gradient-44);}.cls-46{fill:url(#linear-gradient-47);}.cls-47{fill:url(#linear-gradient-46);}.cls-48{fill:url(#linear-gradient-12);}.cls-49{fill:url(#linear-gradient-13);}.cls-50{fill:url(#linear-gradient-26);}</style><linearGradient id="linear-gradient" x1="886.1" y1="202.02" x2="919.84" y2="202.02" gradientUnits="userSpaceOnUse"><stop offset="0" stop-color="#09c"/><stop offset="1" stop-color="#e1f3fc"/></linearGradient><linearGradient id="linear-gradient-2" x1="911.86" y1="165.73" x2="970.54" y2="165.73" xlink:href="#linear-gradient"/><linearGradient id="linear-gradient-3" x1="866.17" y1="271.94" x2="887.98" y2="271.94" xlink:href="#linear-gradient"/><linearGradient id="linear-gradient-4" x1="946.77" y1="357.74" x2="964.74" y2="357.74" xlink:href="#linear-gradient"/><linearGradient id="linear-gradient-5" x1="954.04" y1="168.97" x2="978.6" y2="168.97" xlink:href="#linear-gradient"/><linearGradient id="linear-gradient-6" x1="962.18" y1="180.12" x2="987.26" y2="180.12" xlink:href="#linear-gradient"/><linearGradient id="linear-gradient-7" x1="1016" y1="337.64" x2="1040.1" y2="337.64" xlink:href="#linear-gradient"/><linearGradient id="linear-gradient-8" x1="989.26" y1="169.04" x2="1046.13" y2="169.04" xlink:href="#linear-gradient"/><linearGradient id="linear-gradient-9" x1="1020.52" y1="189.04" x2="1046.13" y2="189.04" xlink:href="#linear-gradient"/><linearGradient id="linear-gradient-10" x1="1020.52" y1="205.93" x2="1048.31" y2="205.93" xlink:href="#linear-gradient"/><linearGradient id="linear-gradient-11" x1="1032.38" y1="208.36" x2="1069.97" y2="208.36" xlink:href="#linear-gradient"/><linearGradient id="linear-gradient-12" x1="1054.19" y1="225.52" x2="1085.56" y2="225.52" xlink:href="#linear-gradient"/><linearGradient id="linear-gradient-13" x1="1047.45" y1="268.47" x2="1063.94" y2="268.47" xlink:href="#linear-gradient"/><linearGradient id="linear-gradient-14" x1="1047.45" y1="276.7" x2="1084.28" y2="276.7" xlink:href="#linear-gradient"/><linearGradient id="linear-gradient-15" x1="1049.9" y1="301.96" x2="1084.28" y2="301.96" xlink:href="#linear-gradient"/><linearGradient id="linear-gradient-16" x1="919.39" y1="271.34" x2="1011.33" y2="271.34" xlink:href="#linear-gradient"/><linearGradient id="linear-gradient-17" x1="180.59" y1="179.53" x2="257.14" y2="179.53" gradientUnits="userSpaceOnUse"><stop offset="0" stop-color="#09c"/><stop offset="1" stop-color="#e1f3fc"/></linearGradient><linearGradient id="linear-gradient-18" x1="298.25" y1="179.53" x2="374.69" y2="179.53" xlink:href="#linear-gradient"/><linearGradient id="linear-gradient-19" x1="219.61" y1="287.19" x2="236.84" y2="287.19" xlink:href="#linear-gradient"/><linearGradient id="linear-gradient-20" x1="241.55" y1="227.24" x2="280.58" y2="227.24" xlink:href="#linear-gradient"/><linearGradient id="linear-gradient-21" x1="287.14" y1="287.19" x2="320.94" y2="287.19" xlink:href="#linear-gradient"/><linearGradient id="linear-gradient-22" x1="359.25" y1="259.29" x2="375.96" y2="259.29" xlink:href="#linear-gradient"/><linearGradient id="linear-gradient-23" x1="406.95" y1="179.51" x2="462.59" y2="179.51" xlink:href="#linear-gradient"/><linearGradient id="linear-gradient-24" x1="447.21" y1="259.31" x2="463.85" y2="259.31" xlink:href="#linear-gradient"/><linearGradient id="linear-gradient-25" x1="517.56" y1="206.27" x2="661.98" y2="206.27" xlink:href="#linear-gradient"/><linearGradient id="linear-gradient-26" x1="606.21" y1="283.27" x2="662.35" y2="283.27" xlink:href="#linear-gradient"/><linearGradient id="linear-gradient-27" x1="525.91" y1="271.34" x2="602.99" y2="271.34" xlink:href="#linear-gradient"/><linearGradient id="linear-gradient-28" x1="635.7" y1="298.03" x2="662.35" y2="298.03" xlink:href="#linear-gradient"/><linearGradient id="linear-gradient-29" x1="684.65" y1="211.48" x2="842.06" y2="211.48" xlink:href="#linear-gradient"/><linearGradient id="linear-gradient-30" x1="725.72" y1="318.14" x2="741.27" y2="318.14" xlink:href="#linear-gradient"/><linearGradient id="linear-gradient-31" x1="798.96" y1="302.79" x2="841.57" y2="302.79" xlink:href="#linear-gradient"/><linearGradient id="linear-gradient-32" x1="725.18" y1="239.04" x2="740.59" y2="239.04" xlink:href="#linear-gradient"/><linearGradient id="linear-gradient-33" x1="725.48" y1="252.65" x2="785.25" y2="252.65" xlink:href="#linear-gradient"/><linearGradient id="linear-gradient-34" x1="1110.55" y1="179.5" x2="1173.23" y2="179.5" xlink:href="#linear-gradient"/><linearGradient id="linear-gradient-35" x1="1220.01" y1="179.5" x2="1273.35" y2="179.5" xlink:href="#linear-gradient"/><linearGradient id="linear-gradient-36" x1="1151.08" y1="295.41" x2="1167.69" y2="295.41" xlink:href="#linear-gradient"/><linearGradient id="linear-gradient-37" x1="1158.53" y1="232.16" x2="1222.13" y2="232.16" xlink:href="#linear-gradient"/><linearGradient id="linear-gradient-38" x1="1258.73" y1="259.31" x2="1274.52" y2="259.31" xlink:href="#linear-gradient"/><linearGradient id="linear-gradient-39" x1="1306.47" y1="179.5" x2="1361.32" y2="179.5" xlink:href="#linear-gradient"/><linearGradient id="linear-gradient-40" x1="1346.79" y1="259.31" x2="1362.51" y2="259.31" xlink:href="#linear-gradient"/><linearGradient id="linear-gradient-41" x1="1416.17" y1="206.27" x2="1560.59" y2="206.27" xlink:href="#linear-gradient"/><linearGradient id="linear-gradient-42" x1="1504.82" y1="283.27" x2="1560.97" y2="283.27" xlink:href="#linear-gradient"/><linearGradient id="linear-gradient-43" x1="1424.53" y1="271.34" x2="1501.61" y2="271.34" xlink:href="#linear-gradient"/><linearGradient id="linear-gradient-44" x1="1534.31" y1="298.03" x2="1560.97" y2="298.03" xlink:href="#linear-gradient"/><linearGradient id="linear-gradient-45" x1="1613.72" y1="179.48" x2="1685.39" y2="179.48" xlink:href="#linear-gradient"/><linearGradient id="linear-gradient-46" x1="1604.05" y1="331.24" x2="1623.16" y2="331.24" xlink:href="#linear-gradient"/><linearGradient id="linear-gradient-47" x1="1671.17" y1="259.31" x2="1739.41" y2="259.31" xlink:href="#linear-gradient"/><linearGradient id="linear-gradient-48" x1="1622.54" y1="254.15" x2="1647.66" y2="254.15" xlink:href="#linear-gradient"/><linearGradient id="linear-gradient-49" x1="1622.54" y1="278.43" x2="1663.99" y2="278.43" xlink:href="#linear-gradient"/></defs><g id="micronica"><path class="cls-35" d="m919.84,202.79c-.79.75-1.54,1.47-2.3,2.26-.07.08-.15.15-.22.19l-.04.04c-3.62,2.9-6.97,6.14-10.02,9.64l-13.18-6.1-7.99-3.73,17.02-15.97,14.09,6.55,2.64,7.12Z"/><polygon class="cls-1" points="970.54 150.17 954.04 165.88 931.86 173.98 911.86 181.28 928.69 165.46 970.54 150.17"/><path class="cls-21" d="m1048.09,262.67l15.86-5.8,5.95-2.18-3.46-9.34-12.24-32.96-21.81,7.99c-3.5-4.71-7.46-9-11.86-12.84l9.68-21.13-33.52-15.55-7.42-3.43-2,4.37-7.68,16.72c-5.76-.87-11.6-1.13-17.4-.75l-8.13-21.88-22.18,8.1-20,7.31,5.35,14.39,2.64,7.12.04.11.04.04.08.23c-.75.53-1.43,1.05-2.15,1.66l-.04.04s-.04.04-.04.04c-.08.08-.15.11-.23.15-.07.08-.15.15-.22.19l-.04.04c-3.62,2.9-6.97,6.14-10.02,9.64l-13.18-6.1-7.99-3.73-18.68,40.79,21.17,9.83c-.19,1.36-.38,2.71-.49,4.11-.11.94-.19,1.92-.23,2.9v.23c-.08,1.36-.11,2.75-.11,4.1,0,2,.08,4.03.23,6.03l-1.32.49-20.49,7.49,15.71,42.26,21.81-7.95c3.46,4.67,7.46,9,11.83,12.81l-9.64,21.09,40.9,19.02,9.38-20.53.26-.56c1.02.15,2.03.3,3.05.38.75.11,1.54.19,2.3.23.9.08,1.85.15,2.75.19h.23c3.01.19,6.06.15,9.08-.04l8.13,21.88,42.15-15.37-3.69-9.94-4.41-11.94c4.26-3.43,8.25-7.16,12.09-11.04.08-.07.11-.11.19-.19.15-.19.3-.38.45-.53h.04l3.2,1.51,3.05,1.39v.04h.04l14.84,6.89,9.19-19.96v-.04l9.53-20.75-21.17-9.83c.83-5.76,1.06-11.6.64-17.4Zm-31.56,8.14c-.3,7.8-2.18,14.54-5.2,20.26-.11.19-.23.38-.3.53-4.71,8.63-12.05,14.8-20.56,18.61-.11.04-.23.08-.34.15-19.21,9.53-44.44,7.12-59.89-12.2-.11-.15-.26-.3-.38-.45-.3-.42-.64-.83-.94-1.24-.3-.38-.57-.79-.83-1.17-5.31-7.19-8.51-16.31-8.7-27.46,0-19.96,9.64-33.52,22.86-40.71,0-.04.04-.04.07-.08.04,0,.08,0,.11-.04.08-.04.11-.08.19-.11h.04l.04-.04c19.51-10.4,46.59-7.12,61.92,9.57,6.14,6.63,10.4,15.33,11.6,26.18.08.53.15,1.06.19,1.58.08.75.11,1.51.15,2.26.04,1.47.04,2.94-.04,4.37Z"/><path class="cls-34" d="m887.98,273.07l-1.32.49-20.49,7.49,17.14-16.57,4.56-1.66v.11c-.08,1.36-.11,2.75-.11,4.1,0,2,.08,4.03.23,6.03Z"/><path class="cls-43" d="m964.74,347.98l-1.43,3.09-16.53,17.21,9.38-20.53.26-.56c1.02.15,2.03.3,3.05.38.75.11,1.54.19,2.3.23.9.08,1.85.15,2.75.19h.23Z"/><polygon class="cls-26" points="978.6 171.87 962.18 187.76 954.04 165.88 970.54 150.17 978.6 171.87"/><path class="cls-11" d="m987.26,171.79l-7.68,16.72c-5.76-.87-11.6-1.13-17.4-.75l16.42-15.89c1.69-.11,3.39-.15,5.08-.15,1.17,0,2.41.04,3.58.08Z"/><path class="cls-29" d="m1040.1,337.36l-16.01,17.1-3.69-9.94-4.41-11.94c4.37-3.24,8.44-6.93,12.09-11.04.08-.07.11-.11.19-.19.15-.15.34-.34.49-.53l3.2,1.51,3.05,1.43,5.08,13.6Z"/><polygon class="cls-44" points="1046.13 170.55 1030.2 186.4 996.68 170.85 989.26 167.42 1005.49 151.68 1046.13 170.55"/><polygon class="cls-31" points="1046.13 170.55 1036.53 191.49 1020.52 207.54 1030.2 186.4 1046.13 170.55"/><path class="cls-17" d="m1048.31,204.26l-15.93,16.12c-3.5-4.71-7.46-9-11.86-12.84l16.01-16.05c4.37,3.84,8.32,8.1,11.79,12.77Z"/><polygon class="cls-15" points="1069.97 196.35 1054.19 212.39 1032.38 220.38 1048.31 204.26 1069.97 196.35"/><polygon class="cls-48" points="1085.56 238.34 1069.89 254.69 1066.43 245.35 1054.19 212.39 1069.97 196.35 1085.56 238.34"/><path class="cls-49" d="m1063.94,256.87c-.04,1.13-.15,2.22-.26,3.31-.11,1.13-.23,2.22-.41,3.32l-15.82,16.57c.83-5.76,1.06-11.6.64-17.4l15.86-5.8Z"/><polygon class="cls-8" points="1084.28 273.26 1068.61 289.9 1047.45 280.08 1063.27 263.5 1084.28 273.26"/><polygon class="cls-4" points="1084.28 273.26 1065.68 313.75 1049.9 330.66 1059.08 310.7 1059.08 310.66 1068.61 289.9 1084.28 273.26"/><path class="cls-20" d="m1011.33,291.07c-.11.19-.23.38-.3.53-4.71,8.63-12.05,14.8-20.56,18.61-.11.04-.23.08-.34.15-19.21,9.53-44.44,7.12-59.89-12.2-.11-.15-.26-.3-.38-.45-.3-.42-.64-.83-.94-1.24-.3-.38-.57-.79-.83-1.17-5.31-7.19-8.51-16.31-8.7-27.46,0-19.96,9.64-33.52,22.86-40.71t-.04.08c.08-.08.15-.11.23-.19.08-.04.11-.08.19-.11h.04c-11.86,20.26-5.95,45.39,10.06,60.15,15.93,12.77,40.11,14.31,57.7,4.52.3-.15.6-.3.9-.49Z"/><polygon class="cls-2" points="257.14 172.08 241.55 186.98 180.59 186.98 196.24 172.08 257.14 172.08"/><polygon class="cls-5" points="374.69 172.08 359.25 186.98 298.25 186.98 313.8 172.08 374.69 172.08"/><path class="cls-21" d="m360.51,346.5h-39.16c-.2-27.48-.34-54.95-.41-82.46-.03-12.03-.07-24.09-.07-36.16h-1.57l-28.09,103.62-4.07,15h-31.24l-19.65-68.04-14.59-50.58h-2.05c.65,34.55,1.16,69.06,1.47,103.62.07,4.99.14,10.01.17,15h-39.37l-1.3-159.52h60.97l28.43,95.41h1.81l.65-2.39,8.13-29.25,17.67-63.77h61l1.16,144.52.1,15Z"/><path class="cls-42" d="m236.84,331.5l-15.58,15c-.03-4.99-.1-10.01-.17-15-.31-34.55-.82-69.06-1.47-103.62h2.05l14.59,50.58c.24,17.67.44,35.33.58,53.04Z"/><path class="cls-10" d="m280.58,250.75c-2.93,10.55-5.86,21.1-8.78,31.65h-1.81l-28.43-95.41,15.58-14.9,23.44,78.67Z"/><path class="cls-24" d="m320.94,264.04l-18.25,67.46-15.55,15,4.07-15,28.09-103.62h1.57c0,12.06.03,24.13.07,36.16Z"/><polygon class="cls-32" points="375.96 331.5 360.51 346.5 360.41 331.5 359.25 186.98 374.69 172.08 375.96 331.5"/><polygon class="cls-41" points="462.59 172.08 447.21 186.95 406.95 186.95 422.36 172.08 462.59 172.08"/><path class="cls-21" d="m448.47,346.54c-13.43,0-26.86-.04-40.29-.04l-1.23-159.56h40.26l1.16,144.56.1,15.04Z"/><polygon class="cls-30" points="463.85 331.5 448.47 346.54 448.37 331.5 447.21 186.95 462.59 172.08 463.85 331.5"/><path class="cls-25" d="m661.98,227.67l-15.17,14.93c-.34-2.73-.82-5.37-1.47-7.93-.44-1.98-1.02-3.89-1.71-5.74-.07-.21-.14-.41-.24-.62-.04-.24-.1-.44-.21-.65-11.86-31.24-47.36-45.42-81.33-42.82-.82.07-1.61.14-2.39.2-13.26,1.33-26.18,5.19-37.28,11.65-1.57.89-3.11,1.85-4.61,2.87.45-.41.85-.82,1.26-1.26,1.57-1.57,3.18-3.18,4.82-4.78,3.04-2.56,6.29-4.89,9.74-7.01,13.22-9.98,29.77-16.16,48.49-16.57,6.46-.14,13.02.34,19.44,1.47,28.57,4.95,54.71,22.31,60.15,52.59.17,1.19.38,2.43.51,3.66Z"/><polygon class="cls-50" points="662.35 275.79 647.18 290.75 606.21 290.75 621.45 275.79 662.35 275.79"/><path class="cls-21" d="m647.18,290.75c-.24,2.46-.58,4.85-1.06,7.14-1.78,8.13-5.13,15.31-9.7,21.46-.21.31-.44.62-.72.92-12.03,15.69-31.99,24.84-52.53,27.61-2.15.27-4.31.51-6.46.65-.31,0-.61.03-.96.03-2.84.17-5.64.21-8.47.14-1.3,0-2.6-.07-3.86-.17-23.17-1.88-39.85-11-39.85-11-22.52-12.92-31.3-37.35-33.28-43.3-2.77-7.14-7.01-21.02-5.16-38.51.1-.92,3.04-21.8,14.52-38.58,4.51-6.6,10.25-12.2,16.78-16.78.38-.27.75-.55,1.13-.79,1.51-1.02,3.04-1.98,4.61-2.87,11.11-6.46,24.02-10.32,37.28-11.65.79-.07,1.57-.14,2.39-.2,33.76-2.22,69.37,11.82,81.27,42.82.1.21.17.41.27.65.1.21.17.41.24.62.65,1.85,1.23,3.76,1.71,5.74.65,2.56,1.13,5.19,1.47,7.93h-40.97c-5.67-20.27-22.08-26.89-38.34-24.4-6.39.96-12.75,3.32-18.46,6.83-1.23.75-2.39,1.54-3.55,2.39,0,0,0,.03-.04.03-1.26.92-2.36,1.81-3.31,2.7-.75.68-1.57,1.44-2.36,2.22-.48.48-.89.89-1.23,1.26-.21.24-.41.44-.58.68-2.87,3.42-9.7,13.53-11.62,27.24-.04.31-.07.58-.1.89-.48,3.72-.55,7.72-.07,11.89.2,1.78.44,3.38.75,4.78.24,1.13.55,2.49,1.06,4.03.85,2.94,2.22,6.49,4.37,10.39.07.1.14.21.21.34.34.58.68,1.2,1.09,1.81.38.65.79,1.3,1.26,1.95.41.65.89,1.33,1.4,1.98,6.87,9.19,18.76,14.56,30.86,15.45,13.84,1.09,27.95-3.62,35.09-15,.31-.38.51-.75.72-1.13,1.06-1.85,1.91-3.83,2.6-5.98.24-.72.44-1.47.62-2.22h40.97Z"/><path class="cls-36" d="m602.99,298.96c-.2.38-.41.75-.72,1.13-7.14,11.38-21.26,16.1-35.09,15-12.1-.89-23.99-6.25-30.86-15.45-3.97-5.31-6.33-10.46-7.76-14.67,0,0-.99-2.9-1.62-5.82-2.19-10.18-1.93-30.59,11.6-45.5,1.46-1.61,3.73-3.88,6.94-6.22-12.51,24.2-.51,48.46,17.53,62.06.03.04.07.04.1.1,12.47,9.4,27.82,13.7,39.88,9.36Z"/><path class="cls-7" d="m662.35,275.79c-.07.75-.14,1.5-.24,2.25-.17,1.16-.34,2.29-.55,3.42-.38,2.05-.82,4.07-1.4,5.98,0,.07,0,.14-.04.17-3.96,13.91-12.54,24.64-23.68,32.19-.24.17-.48.34-.75.48.27-.31.51-.62.72-.92,4.58-6.15,7.93-13.33,9.7-21.46.48-2.29.82-4.68,1.06-7.14l15.17-14.97Z"/><path class="cls-39" d="m842.05,218.66c0,.58,0,1.16-.03,1.74l-.07,1.71c0,.17,0,.38-.04.55-.03.62-.1,1.26-.17,1.88-.27,2.02-.65,3.96-1.2,5.88-1.57,5.57-4.31,10.66-8,14.93l-1.03,1.13c-.38.38-.72.75-1.09,1.09-.38.38-.75.72-1.13,1.06-.41.34-.79.65-1.2.99-.38.31-.75.61-1.13.89-.44.34-.92.65-1.4.96-.38.27-.79.55-1.2.78-.65.41-1.37.82-2.05,1.16,2.94-5.43,4.58-11.65,4.68-18.11,2.46-59.94-81.67-51.6-127.13-48.94-5.81.34-10.97.58-15.24.58l15.14-14.87c3.42,0,7.42-.17,11.86-.41,5.09-.27,10.8-.68,16.88-1.03,41.45-2.43,100.43-4.17,111.68,33.42.92,3.01,1.5,6.29,1.71,9.81.14,1.54.17,3.14.14,4.78Z"/><path class="cls-21" d="m820.32,288.85c-.27-.75-.62-1.54-1.03-2.26-.34-.72-.75-1.44-1.16-2.08t-.03-.04c-1.68-2.66-3.83-4.99-6.6-6.87-.14-.1-.27-.21-.44-.27-1.3-.85-2.77-1.61-4.38-2.26-.17-.1-.38-.17-.55-.21-.34-.14-.68-.27-1.03-.38-1.88-.65-3.9-1.16-6.15-1.5v-1.54c.72-.17,1.44-.34,2.15-.58,7.14-2.08,13.09-6.29,17.46-11.82h.04c1.37-1.74,2.63-3.62,3.72-5.6h-.07s.04,0,.07-.03c2.94-5.43,4.58-11.65,4.68-18.11,2.46-59.94-81.67-51.6-127.13-48.94-5.81.34-10.97.58-15.24.58l1.23,159.59h40.29l-.14-15.04-.31-40.8c3.93,0,9.3-.55,15.21-.96,14.18-.96,31.44-1.2,39.26,8.54.24.31.48.62.68.92.44.65.85,1.3,1.2,1.98.72,1.37,1.26,2.84,1.64,4.37.31,1.16.55,2.39.72,3.62,1.64,11.72-1.88,26.69,1.61,37.35h40.5c-1.47-4.48-2.08-9.6-2.39-15.04-.68-14.32,1.03-30.72-3.83-42.65Zm-34.86-45.93c-.03.41-.1.82-.17,1.19v.07c-.04.17-.07.34-.1.51-.07.38-.17.75-.27,1.09-.62,2.26-1.57,4.2-2.84,5.88-.51.65-1.06,1.3-1.68,1.88-12.06,11.76-41.73,6.29-54.92,6.29l-.31-40.7c3.76,0,9.16-.51,15.21-.89,10.56-.65,23.1-.96,32.29,2.39,1.06.38,2.08.85,3.04,1.33.96.48,1.88,1.03,2.73,1.64.31.24.65.48.99.75.31.27.61.55.92.82.31.27.58.58.85.85.27.31.55.62.82.92,2.36,3.01,3.73,6.94,3.62,12.1.03,1.37-.03,2.63-.21,3.86Z"/><path class="cls-40" d="m741.27,331.5l-15.1,15.04-.14-15.04-.31-40.8c3.93,0,9.3-.55,15.21-.96l.34,41.76Z"/><path class="cls-22" d="m841.57,331.5l-15.04,15.04c-1.37-4.48-1.91-9.6-2.19-15.04-.65-14.32.89-30.72-4.03-42.65-.27-.75-.62-1.54-1.03-2.26-.34-.72-.75-1.44-1.16-2.08t-.03-.04c-1.68-2.66-3.83-4.99-6.6-6.87-.14-.1-.27-.21-.44-.27-1.33-.89-2.77-1.64-4.38-2.26-.17-.1-.38-.17-.55-.21-.34-.14-.68-.27-1.03-.38-1.88-.65-3.9-1.16-6.15-1.5v-1.54c2.47-.56,5.72-1.58,9.2-3.52,5.15-2.87,8.5-6.47,10.41-8.89h.04c2.02.55,3.86,1.3,5.5,2.12.79.44,1.54.89,2.22,1.33,1.09.72,2.05,1.51,2.97,2.36.89.82,1.71,1.71,2.46,2.66,0,.04.03.04.03.04.48.65.92,1.3,1.33,1.95l.03.03c.41.68.82,1.37,1.16,2.09.38.72.72,1.5,1.02,2.25.41,1.03.79,2.09,1.13,3.18,4.85,16.33.14,39.3,5.09,54.44Z"/><path class="cls-14" d="m740.59,244.9l-15.1,14.93-.31-40.7c3.76,0,9.16-.51,15.21-.89l.21,26.65Z"/><path class="cls-37" d="m785.25,244.19c-.03.17-.03.34-.07.51-.07.38-.17.75-.27,1.09-.62,2.26-1.57,4.2-2.84,5.88-.51.65-1.06,1.3-1.68,1.88-12.06,11.76-41.73,6.29-54.92,6.29l15.1-14.93c.82,0,1.71.04,2.63.07.85.04,1.74.07,2.66.14,1.2.07,2.46.14,3.79.24.75.07,1.54.1,2.32.17.41.03.79.07,1.2.07,10.18.75,22.52,1.4,32.05-1.4Z"/><polygon class="cls-28" points="1173.23 172.05 1158.53 186.95 1110.55 186.95 1125.32 172.05 1173.23 172.05"/><polygon class="cls-12" points="1273.35 172.05 1258.73 186.95 1220.01 186.95 1234.64 172.05 1273.35 172.05"/><path class="cls-21" d="m1259.93,346.57c-15.11,0-30.18,0-45.25-.03l-47.91-79.21-13.91-23.03h-1.78c.96,29.12,1.47,58.16,1.74,87.24.07,4.99.1,10.01.14,15h-41.21l-1.19-159.59h47.98l62.02,105.32h1.57c-.04-.51-.04-1.06-.04-1.57-.44-12.51-.79-25.01-1.06-37.52-.55-22.08-.89-44.12-1.02-66.23h38.72l1.09,144.59.1,15.04Z"/><path class="cls-9" d="m1167.69,331.53l-14.73,15c-.03-4.99-.07-10.01-.14-15-.27-29.08-.79-58.13-1.74-87.24h1.78l13.91,23.03c.48,21.39.75,42.79.92,64.21Z"/><path class="cls-19" d="m1222.13,292.27h-1.57l-62.02-105.32,14.7-14.9,47.81,81.13c.14,6.22.29,12.48.47,18.76.19,6.81.4,13.59.63,20.33Z"/><polygon class="cls-38" points="1274.52 331.53 1259.93 346.57 1259.82 331.53 1258.73 186.95 1273.35 172.05 1274.52 331.53"/><polygon class="cls-16" points="1361.32 172.05 1346.79 186.91 1321.13 186.95 1306.47 186.95 1321.03 172.05 1361.32 172.05"/><polygon class="cls-21" points="1347.99 346.57 1307.66 346.57 1306.47 186.95 1321.13 186.95 1346.79 186.91 1347.89 331.53 1347.99 346.57"/><polygon class="cls-6" points="1362.51 331.53 1347.99 346.57 1347.89 331.53 1346.79 186.91 1361.32 172.05 1362.51 331.53"/><path class="cls-23" d="m1560.59,227.67l-15.17,14.93c-.34-2.73-.82-5.37-1.47-7.93-.44-1.98-1.02-3.89-1.71-5.74-.07-.21-.14-.41-.24-.62-.04-.24-.1-.44-.21-.65-11.86-31.24-47.36-45.42-81.33-42.82-.82.07-1.61.14-2.39.2-13.26,1.33-26.18,5.19-37.28,11.65-1.57.89-3.11,1.85-4.61,2.87.45-.41.85-.82,1.26-1.26,1.57-1.57,3.18-3.18,4.82-4.78,3.04-2.56,6.29-4.89,9.74-7.01,13.22-9.98,29.77-16.16,48.49-16.57,6.46-.14,13.02.34,19.44,1.47,28.57,4.95,54.71,22.31,60.15,52.59.17,1.19.38,2.43.51,3.66Z"/><polygon class="cls-33" points="1560.97 275.79 1545.79 290.75 1504.82 290.75 1520.06 275.79 1560.97 275.79"/><path class="cls-21" d="m1545.79,290.75c-.24,2.46-.58,4.85-1.06,7.14-1.78,8.13-5.13,15.31-9.7,21.46-.21.31-.44.62-.72.92-12.03,15.69-31.99,24.84-52.53,27.61-2.15.27-4.31.51-6.46.65-.31,0-.61.03-.96.03-2.84.17-5.64.21-8.47.14-1.3,0-2.6-.07-3.86-.17-23.17-1.88-39.85-11-39.85-11-22.52-12.92-31.3-37.35-33.28-43.3-2.77-7.14-7.01-21.02-5.16-38.51.1-.92,3.04-21.8,14.52-38.58,4.51-6.6,10.25-12.2,16.78-16.78.38-.27.75-.55,1.13-.79,1.51-1.02,3.04-1.98,4.61-2.87,11.11-6.46,24.02-10.32,37.28-11.65.79-.07,1.57-.14,2.39-.2,33.76-2.22,69.37,11.82,81.27,42.82.1.21.17.41.27.65.1.21.17.41.24.62.65,1.85,1.23,3.76,1.71,5.74.65,2.56,1.13,5.19,1.47,7.93h-40.97c-5.67-20.27-22.08-26.89-38.34-24.4-6.39.96-12.75,3.32-18.46,6.83-1.23.75-2.39,1.54-3.55,2.39,0,0,0,.03-.04.03-1.26.92-2.36,1.81-3.31,2.7-.75.68-1.57,1.44-2.36,2.22-.48.48-.89.89-1.23,1.26-.21.24-.41.44-.58.68-2.87,3.42-9.7,13.53-11.62,27.24-.04.31-.07.58-.1.89-.48,3.72-.55,7.72-.07,11.89.2,1.78.44,3.38.75,4.78.24,1.13.55,2.49,1.06,4.03.85,2.94,2.22,6.49,4.37,10.39.07.1.14.21.21.34.34.58.68,1.2,1.09,1.81.38.65.79,1.3,1.26,1.95.41.65.89,1.33,1.4,1.98,6.87,9.19,18.76,14.56,30.86,15.45,13.84,1.09,27.95-3.62,35.09-15,.31-.38.51-.75.72-1.13,1.06-1.85,1.91-3.83,2.6-5.98.24-.72.44-1.47.62-2.22h40.97Z"/><path class="cls-3" d="m1501.61,298.96c-.2.38-.41.75-.72,1.13-7.14,11.38-21.26,16.1-35.09,15-12.1-.89-23.99-6.25-30.86-15.45-3.97-5.31-6.33-10.46-7.76-14.67,0,0-.99-2.9-1.62-5.82-2.19-10.18-1.93-30.59,11.6-45.5,1.46-1.61,3.73-3.88,6.94-6.22-12.51,24.2-.51,48.46,17.53,62.06.03.04.07.04.1.1,12.47,9.4,27.82,13.7,39.88,9.36Z"/><path class="cls-45" d="m1560.97,275.79c-.07.75-.14,1.5-.24,2.25-.17,1.16-.34,2.29-.55,3.42-.38,2.05-.82,4.07-1.4,5.98,0,.07,0,.14-.04.17-3.96,13.91-12.54,24.64-23.68,32.19-.24.17-.48.34-.75.48.27-.31.51-.62.72-.92,4.58-6.15,7.93-13.33,9.7-21.46.48-2.29.82-4.68,1.06-7.14l15.17-14.97Z"/><polygon class="cls-27" points="1685.39 172.05 1671.17 186.91 1613.72 186.91 1627.97 172.05 1685.39 172.05"/><path class="cls-21" d="m1720.17,331.53l-49-144.62h-57.45l-51.77,159.66h42.1l4.65-15.04,4.82-15.62h59.7l10.15,30.65h41.9l-5.09-15.04Zm-97.63-45.62c6.66-21.15,13.22-42.27,19.58-63.53h1.37l4.17,13.67v.04l4.13,13.46,7.18,21.39,5.02,14.97h-41.45Z"/><polygon class="cls-47" points="1623.16 315.92 1618.34 331.53 1604.05 346.57 1608.7 331.53 1613.52 315.92 1623.16 315.92"/><polygon class="cls-46" points="1739.41 331.53 1725.27 346.57 1720.17 331.53 1671.17 186.91 1685.39 172.05 1739.41 331.53"/><path class="cls-13" d="m1647.66,236.05v.04c-3.55,11.62-7.21,23.24-10.87,34.86l-14.25,14.97c6.66-21.15,13.22-42.27,19.58-63.53h1.37l4.17,13.67Z"/><polygon class="cls-18" points="1663.99 285.91 1622.54 285.91 1636.79 270.94 1658.97 270.94 1663.99 285.91"/></g></svg>